<mxfile host="app.diagrams.net" modified="2023-09-02T04:15:29.845Z" agent="Mozilla/5.0 (X11; Linux x86_64) AppleWebKit/537.36 (KHTML, like Gecko) Chrome/114.0.0.0 Safari/537.36" etag="-KCsgwr7dDRFhV5t_SVf" version="21.7.2" type="device">
  <diagram name="Page-1" id="4w6PLohKwCq4BGsAYFdz">
    <mxGraphModel dx="943" dy="475" grid="1" gridSize="5" guides="1" tooltips="1" connect="1" arrows="1" fold="1" page="1" pageScale="1" pageWidth="850" pageHeight="1100" math="0" shadow="0">
      <root>
        <mxCell id="0" />
        <mxCell id="1" parent="0" />
        <mxCell id="cV7xCcReivzUAdjwhD2p-22" value="" style="whiteSpace=wrap;html=1;aspect=fixed;fillColor=#99FF99;" vertex="1" parent="1">
          <mxGeometry x="400" y="360" width="40" height="40" as="geometry" />
        </mxCell>
        <mxCell id="cV7xCcReivzUAdjwhD2p-19" value="" style="whiteSpace=wrap;html=1;aspect=fixed;fillColor=#FF6666;" vertex="1" parent="1">
          <mxGeometry x="280" y="360" width="40" height="40" as="geometry" />
        </mxCell>
        <mxCell id="cV7xCcReivzUAdjwhD2p-20" value="" style="whiteSpace=wrap;html=1;aspect=fixed;fillColor=#FF6666;" vertex="1" parent="1">
          <mxGeometry x="320" y="360" width="40" height="40" as="geometry" />
        </mxCell>
        <mxCell id="cV7xCcReivzUAdjwhD2p-21" value="" style="whiteSpace=wrap;html=1;aspect=fixed;fillColor=#99FF99;" vertex="1" parent="1">
          <mxGeometry x="360" y="360" width="40" height="40" as="geometry" />
        </mxCell>
        <mxCell id="cV7xCcReivzUAdjwhD2p-15" value="" style="whiteSpace=wrap;html=1;aspect=fixed;fillColor=#99FF99;" vertex="1" parent="1">
          <mxGeometry x="400" y="400" width="40" height="40" as="geometry" />
        </mxCell>
        <mxCell id="cV7xCcReivzUAdjwhD2p-16" value="" style="whiteSpace=wrap;html=1;aspect=fixed;fillColor=#99FF99;" vertex="1" parent="1">
          <mxGeometry x="400" y="440" width="40" height="40" as="geometry" />
        </mxCell>
        <mxCell id="cV7xCcReivzUAdjwhD2p-17" value="" style="whiteSpace=wrap;html=1;aspect=fixed;fillColor=#99FF99;" vertex="1" parent="1">
          <mxGeometry x="400" y="480" width="40" height="40" as="geometry" />
        </mxCell>
        <mxCell id="cV7xCcReivzUAdjwhD2p-1" value="" style="whiteSpace=wrap;html=1;aspect=fixed;fillColor=#FF6666;" vertex="1" parent="1">
          <mxGeometry x="280" y="440" width="40" height="40" as="geometry" />
        </mxCell>
        <mxCell id="cV7xCcReivzUAdjwhD2p-2" value="" style="whiteSpace=wrap;html=1;aspect=fixed;" vertex="1" parent="1">
          <mxGeometry x="320" y="440" width="40" height="40" as="geometry" />
        </mxCell>
        <mxCell id="cV7xCcReivzUAdjwhD2p-3" value="" style="whiteSpace=wrap;html=1;aspect=fixed;fillColor=#FF6666;" vertex="1" parent="1">
          <mxGeometry x="280" y="480" width="40" height="40" as="geometry" />
        </mxCell>
        <mxCell id="cV7xCcReivzUAdjwhD2p-4" value="" style="whiteSpace=wrap;html=1;aspect=fixed;fillColor=#FF6666;" vertex="1" parent="1">
          <mxGeometry x="320" y="480" width="40" height="40" as="geometry" />
        </mxCell>
        <mxCell id="cV7xCcReivzUAdjwhD2p-5" value="" style="whiteSpace=wrap;html=1;aspect=fixed;fillColor=#99FF99;" vertex="1" parent="1">
          <mxGeometry x="360" y="440" width="40" height="40" as="geometry" />
        </mxCell>
        <mxCell id="cV7xCcReivzUAdjwhD2p-6" value="" style="whiteSpace=wrap;html=1;aspect=fixed;fillColor=#FF6666;" vertex="1" parent="1">
          <mxGeometry x="360" y="480" width="40" height="40" as="geometry" />
        </mxCell>
        <mxCell id="cV7xCcReivzUAdjwhD2p-7" value="" style="whiteSpace=wrap;html=1;aspect=fixed;fillColor=#99FF99;" vertex="1" parent="1">
          <mxGeometry x="360" y="400" width="40" height="40" as="geometry" />
        </mxCell>
        <mxCell id="cV7xCcReivzUAdjwhD2p-8" value="" style="whiteSpace=wrap;html=1;aspect=fixed;fillColor=#FF6666;" vertex="1" parent="1">
          <mxGeometry x="320" y="400" width="40" height="40" as="geometry" />
        </mxCell>
        <mxCell id="cV7xCcReivzUAdjwhD2p-9" value="" style="whiteSpace=wrap;html=1;aspect=fixed;fillColor=#FF6666;" vertex="1" parent="1">
          <mxGeometry x="280" y="400" width="40" height="40" as="geometry" />
        </mxCell>
        <mxCell id="cV7xCcReivzUAdjwhD2p-10" value="" style="ellipse;whiteSpace=wrap;html=1;aspect=fixed;fillColor=#FF3333;strokeColor=#000000;" vertex="1" parent="1">
          <mxGeometry x="325" y="445" width="30" height="30" as="geometry" />
        </mxCell>
        <mxCell id="cV7xCcReivzUAdjwhD2p-12" value="" style="rounded=0;whiteSpace=wrap;html=1;fillColor=#6666FF;" vertex="1" parent="1">
          <mxGeometry x="290" y="370" width="60" height="62.5" as="geometry" />
        </mxCell>
        <mxCell id="cV7xCcReivzUAdjwhD2p-13" value="" style="rounded=0;whiteSpace=wrap;html=1;fillColor=#6666FF;" vertex="1" parent="1">
          <mxGeometry x="330" y="487.5" width="60" height="25" as="geometry" />
        </mxCell>
        <mxCell id="cV7xCcReivzUAdjwhD2p-59" value="" style="endArrow=classic;html=1;rounded=0;entryX=0.5;entryY=0.5;entryDx=0;entryDy=0;entryPerimeter=0;exitX=0.5;exitY=0.5;exitDx=0;exitDy=0;exitPerimeter=0;strokeWidth=2;" edge="1" parent="1" source="cV7xCcReivzUAdjwhD2p-5" target="cV7xCcReivzUAdjwhD2p-16">
          <mxGeometry width="50" height="50" relative="1" as="geometry">
            <mxPoint x="280" y="500" as="sourcePoint" />
            <mxPoint x="520" y="490" as="targetPoint" />
          </mxGeometry>
        </mxCell>
        <mxCell id="cV7xCcReivzUAdjwhD2p-60" value="" style="endArrow=classic;html=1;rounded=0;entryX=0.5;entryY=0.5;entryDx=0;entryDy=0;entryPerimeter=0;exitX=0.5;exitY=0.5;exitDx=0;exitDy=0;exitPerimeter=0;strokeWidth=2;" edge="1" parent="1">
          <mxGeometry width="50" height="50" relative="1" as="geometry">
            <mxPoint x="340" y="459.88" as="sourcePoint" />
            <mxPoint x="380" y="459.88" as="targetPoint" />
          </mxGeometry>
        </mxCell>
        <mxCell id="cV7xCcReivzUAdjwhD2p-61" value="" style="endArrow=classic;html=1;rounded=0;strokeWidth=2;entryX=0.5;entryY=0.5;entryDx=0;entryDy=0;entryPerimeter=0;" edge="1" parent="1" target="cV7xCcReivzUAdjwhD2p-17">
          <mxGeometry width="50" height="50" relative="1" as="geometry">
            <mxPoint x="380" y="460" as="sourcePoint" />
            <mxPoint x="430" y="470" as="targetPoint" />
          </mxGeometry>
        </mxCell>
        <mxCell id="cV7xCcReivzUAdjwhD2p-62" value="" style="whiteSpace=wrap;html=1;aspect=fixed;fillColor=#FF3333;" vertex="1" parent="1">
          <mxGeometry x="287.5" y="447.5" width="25" height="25" as="geometry" />
        </mxCell>
        <mxCell id="cV7xCcReivzUAdjwhD2p-63" value="" style="endArrow=classic;html=1;rounded=0;entryX=0.5;entryY=0.5;entryDx=0;entryDy=0;entryPerimeter=0;exitX=0.5;exitY=0.5;exitDx=0;exitDy=0;exitPerimeter=0;strokeWidth=2;" edge="1" parent="1" target="cV7xCcReivzUAdjwhD2p-7">
          <mxGeometry width="50" height="50" relative="1" as="geometry">
            <mxPoint x="340" y="459.8" as="sourcePoint" />
            <mxPoint x="380" y="459.8" as="targetPoint" />
          </mxGeometry>
        </mxCell>
        <mxCell id="cV7xCcReivzUAdjwhD2p-64" value="" style="endArrow=classic;html=1;rounded=0;entryX=0.5;entryY=0.5;entryDx=0;entryDy=0;entryPerimeter=0;exitX=0.5;exitY=0.5;exitDx=0;exitDy=0;exitPerimeter=0;strokeWidth=2;" edge="1" parent="1" target="cV7xCcReivzUAdjwhD2p-21">
          <mxGeometry width="50" height="50" relative="1" as="geometry">
            <mxPoint x="380" y="421.15000000000003" as="sourcePoint" />
            <mxPoint x="420" y="381.35" as="targetPoint" />
          </mxGeometry>
        </mxCell>
        <mxCell id="cV7xCcReivzUAdjwhD2p-65" value="" style="endArrow=classic;html=1;rounded=0;entryX=0.5;entryY=0.5;entryDx=0;entryDy=0;entryPerimeter=0;strokeWidth=2;" edge="1" parent="1" target="cV7xCcReivzUAdjwhD2p-22">
          <mxGeometry width="50" height="50" relative="1" as="geometry">
            <mxPoint x="380" y="420" as="sourcePoint" />
            <mxPoint x="390" y="390" as="targetPoint" />
          </mxGeometry>
        </mxCell>
        <mxCell id="cV7xCcReivzUAdjwhD2p-66" value="" style="endArrow=classic;html=1;rounded=0;entryX=0.5;entryY=0.5;entryDx=0;entryDy=0;entryPerimeter=0;strokeWidth=2;" edge="1" parent="1" target="cV7xCcReivzUAdjwhD2p-15">
          <mxGeometry width="50" height="50" relative="1" as="geometry">
            <mxPoint x="380" y="420" as="sourcePoint" />
            <mxPoint x="430" y="390" as="targetPoint" />
          </mxGeometry>
        </mxCell>
        <mxCell id="cV7xCcReivzUAdjwhD2p-67" value="" style="whiteSpace=wrap;html=1;aspect=fixed;fillColor=#FFFFFF;" vertex="1" parent="1">
          <mxGeometry x="210" y="560" width="40" height="40" as="geometry" />
        </mxCell>
        <mxCell id="cV7xCcReivzUAdjwhD2p-69" value="" style="whiteSpace=wrap;html=1;aspect=fixed;fillColor=#FFFFFF;" vertex="1" parent="1">
          <mxGeometry x="250" y="560" width="40" height="40" as="geometry" />
        </mxCell>
        <mxCell id="cV7xCcReivzUAdjwhD2p-70" value="" style="whiteSpace=wrap;html=1;aspect=fixed;fillColor=#FFFFFF;" vertex="1" parent="1">
          <mxGeometry x="210" y="600" width="40" height="40" as="geometry" />
        </mxCell>
        <mxCell id="cV7xCcReivzUAdjwhD2p-71" value="" style="whiteSpace=wrap;html=1;aspect=fixed;fillColor=#FFFFFF;" vertex="1" parent="1">
          <mxGeometry x="250" y="600" width="40" height="40" as="geometry" />
        </mxCell>
        <mxCell id="cV7xCcReivzUAdjwhD2p-72" value="" style="whiteSpace=wrap;html=1;aspect=fixed;fillColor=#FFFFFF;" vertex="1" parent="1">
          <mxGeometry x="290" y="560" width="40" height="40" as="geometry" />
        </mxCell>
        <mxCell id="cV7xCcReivzUAdjwhD2p-73" value="" style="whiteSpace=wrap;html=1;aspect=fixed;fillColor=#FFFFFF;" vertex="1" parent="1">
          <mxGeometry x="330" y="560" width="40" height="40" as="geometry" />
        </mxCell>
        <mxCell id="cV7xCcReivzUAdjwhD2p-74" value="" style="whiteSpace=wrap;html=1;aspect=fixed;fillColor=#FFFFFF;" vertex="1" parent="1">
          <mxGeometry x="290" y="600" width="40" height="40" as="geometry" />
        </mxCell>
        <mxCell id="cV7xCcReivzUAdjwhD2p-75" value="" style="whiteSpace=wrap;html=1;aspect=fixed;fillColor=#FFFFFF;" vertex="1" parent="1">
          <mxGeometry x="330" y="600" width="40" height="40" as="geometry" />
        </mxCell>
        <mxCell id="cV7xCcReivzUAdjwhD2p-76" value="" style="whiteSpace=wrap;html=1;aspect=fixed;fillColor=#FFFFFF;" vertex="1" parent="1">
          <mxGeometry x="370" y="560" width="40" height="40" as="geometry" />
        </mxCell>
        <mxCell id="cV7xCcReivzUAdjwhD2p-77" value="" style="whiteSpace=wrap;html=1;aspect=fixed;fillColor=#FFFFFF;" vertex="1" parent="1">
          <mxGeometry x="410" y="560" width="40" height="40" as="geometry" />
        </mxCell>
        <mxCell id="cV7xCcReivzUAdjwhD2p-78" value="" style="whiteSpace=wrap;html=1;aspect=fixed;fillColor=#FFFFFF;" vertex="1" parent="1">
          <mxGeometry x="370" y="600" width="40" height="40" as="geometry" />
        </mxCell>
        <mxCell id="cV7xCcReivzUAdjwhD2p-79" value="" style="whiteSpace=wrap;html=1;aspect=fixed;fillColor=#FFFFFF;" vertex="1" parent="1">
          <mxGeometry x="410" y="600" width="40" height="40" as="geometry" />
        </mxCell>
        <mxCell id="cV7xCcReivzUAdjwhD2p-80" value="" style="whiteSpace=wrap;html=1;aspect=fixed;fillColor=#FFFFFF;" vertex="1" parent="1">
          <mxGeometry x="450" y="560" width="40" height="40" as="geometry" />
        </mxCell>
        <mxCell id="cV7xCcReivzUAdjwhD2p-81" value="" style="whiteSpace=wrap;html=1;aspect=fixed;fillColor=#FFFFFF;" vertex="1" parent="1">
          <mxGeometry x="490" y="560" width="40" height="40" as="geometry" />
        </mxCell>
        <mxCell id="cV7xCcReivzUAdjwhD2p-82" value="" style="whiteSpace=wrap;html=1;aspect=fixed;fillColor=#FFFFFF;" vertex="1" parent="1">
          <mxGeometry x="450" y="600" width="40" height="40" as="geometry" />
        </mxCell>
        <mxCell id="cV7xCcReivzUAdjwhD2p-83" value="" style="whiteSpace=wrap;html=1;aspect=fixed;fillColor=#FFFFFF;" vertex="1" parent="1">
          <mxGeometry x="490" y="600" width="40" height="40" as="geometry" />
        </mxCell>
        <mxCell id="cV7xCcReivzUAdjwhD2p-84" value="" style="whiteSpace=wrap;html=1;aspect=fixed;fillColor=#FFFFFF;" vertex="1" parent="1">
          <mxGeometry x="530" y="560" width="40" height="40" as="geometry" />
        </mxCell>
        <mxCell id="cV7xCcReivzUAdjwhD2p-85" value="" style="whiteSpace=wrap;html=1;aspect=fixed;fillColor=#FFFFFF;" vertex="1" parent="1">
          <mxGeometry x="570" y="560" width="40" height="40" as="geometry" />
        </mxCell>
        <mxCell id="cV7xCcReivzUAdjwhD2p-86" value="" style="whiteSpace=wrap;html=1;aspect=fixed;fillColor=#FFFFFF;" vertex="1" parent="1">
          <mxGeometry x="530" y="600" width="40" height="40" as="geometry" />
        </mxCell>
        <mxCell id="cV7xCcReivzUAdjwhD2p-87" value="" style="whiteSpace=wrap;html=1;aspect=fixed;fillColor=#FFFFFF;" vertex="1" parent="1">
          <mxGeometry x="570" y="600" width="40" height="40" as="geometry" />
        </mxCell>
        <mxCell id="cV7xCcReivzUAdjwhD2p-88" value="" style="whiteSpace=wrap;html=1;aspect=fixed;fillColor=#FFFFFF;" vertex="1" parent="1">
          <mxGeometry x="210" y="640" width="40" height="40" as="geometry" />
        </mxCell>
        <mxCell id="cV7xCcReivzUAdjwhD2p-89" value="" style="whiteSpace=wrap;html=1;aspect=fixed;fillColor=#FFFFFF;" vertex="1" parent="1">
          <mxGeometry x="250" y="640" width="40" height="40" as="geometry" />
        </mxCell>
        <mxCell id="cV7xCcReivzUAdjwhD2p-90" value="" style="whiteSpace=wrap;html=1;aspect=fixed;fillColor=#FFFFFF;" vertex="1" parent="1">
          <mxGeometry x="210" y="680" width="40" height="40" as="geometry" />
        </mxCell>
        <mxCell id="cV7xCcReivzUAdjwhD2p-91" value="" style="whiteSpace=wrap;html=1;aspect=fixed;fillColor=#FFFFFF;" vertex="1" parent="1">
          <mxGeometry x="250" y="680" width="40" height="40" as="geometry" />
        </mxCell>
        <mxCell id="cV7xCcReivzUAdjwhD2p-92" value="" style="whiteSpace=wrap;html=1;aspect=fixed;fillColor=#FFFFFF;" vertex="1" parent="1">
          <mxGeometry x="290" y="640" width="40" height="40" as="geometry" />
        </mxCell>
        <mxCell id="cV7xCcReivzUAdjwhD2p-93" value="" style="whiteSpace=wrap;html=1;aspect=fixed;fillColor=#FFFFFF;" vertex="1" parent="1">
          <mxGeometry x="330" y="640" width="40" height="40" as="geometry" />
        </mxCell>
        <mxCell id="cV7xCcReivzUAdjwhD2p-94" value="" style="whiteSpace=wrap;html=1;aspect=fixed;fillColor=#FFFFFF;" vertex="1" parent="1">
          <mxGeometry x="290" y="680" width="40" height="40" as="geometry" />
        </mxCell>
        <mxCell id="cV7xCcReivzUAdjwhD2p-95" value="" style="whiteSpace=wrap;html=1;aspect=fixed;fillColor=#FFFFFF;" vertex="1" parent="1">
          <mxGeometry x="330" y="680" width="40" height="40" as="geometry" />
        </mxCell>
        <mxCell id="cV7xCcReivzUAdjwhD2p-96" value="" style="whiteSpace=wrap;html=1;aspect=fixed;fillColor=#FFFFFF;" vertex="1" parent="1">
          <mxGeometry x="370" y="640" width="40" height="40" as="geometry" />
        </mxCell>
        <mxCell id="cV7xCcReivzUAdjwhD2p-97" value="" style="whiteSpace=wrap;html=1;aspect=fixed;fillColor=#FFFFFF;" vertex="1" parent="1">
          <mxGeometry x="410" y="640" width="40" height="40" as="geometry" />
        </mxCell>
        <mxCell id="cV7xCcReivzUAdjwhD2p-98" value="" style="whiteSpace=wrap;html=1;aspect=fixed;fillColor=#FFFFFF;" vertex="1" parent="1">
          <mxGeometry x="370" y="680" width="40" height="40" as="geometry" />
        </mxCell>
        <mxCell id="cV7xCcReivzUAdjwhD2p-99" value="" style="whiteSpace=wrap;html=1;aspect=fixed;fillColor=#FFFFFF;" vertex="1" parent="1">
          <mxGeometry x="410" y="680" width="40" height="40" as="geometry" />
        </mxCell>
        <mxCell id="cV7xCcReivzUAdjwhD2p-100" value="" style="whiteSpace=wrap;html=1;aspect=fixed;fillColor=#FFFFFF;" vertex="1" parent="1">
          <mxGeometry x="450" y="640" width="40" height="40" as="geometry" />
        </mxCell>
        <mxCell id="cV7xCcReivzUAdjwhD2p-101" value="" style="whiteSpace=wrap;html=1;aspect=fixed;fillColor=#FFFFFF;" vertex="1" parent="1">
          <mxGeometry x="490" y="640" width="40" height="40" as="geometry" />
        </mxCell>
        <mxCell id="cV7xCcReivzUAdjwhD2p-102" value="" style="whiteSpace=wrap;html=1;aspect=fixed;fillColor=#FFFFFF;" vertex="1" parent="1">
          <mxGeometry x="450" y="680" width="40" height="40" as="geometry" />
        </mxCell>
        <mxCell id="cV7xCcReivzUAdjwhD2p-103" value="" style="whiteSpace=wrap;html=1;aspect=fixed;fillColor=#FFFFFF;" vertex="1" parent="1">
          <mxGeometry x="490" y="680" width="40" height="40" as="geometry" />
        </mxCell>
        <mxCell id="cV7xCcReivzUAdjwhD2p-104" value="" style="whiteSpace=wrap;html=1;aspect=fixed;fillColor=#FFFFFF;" vertex="1" parent="1">
          <mxGeometry x="530" y="640" width="40" height="40" as="geometry" />
        </mxCell>
        <mxCell id="cV7xCcReivzUAdjwhD2p-105" value="" style="whiteSpace=wrap;html=1;aspect=fixed;fillColor=#FFFFFF;" vertex="1" parent="1">
          <mxGeometry x="570" y="640" width="40" height="40" as="geometry" />
        </mxCell>
        <mxCell id="cV7xCcReivzUAdjwhD2p-106" value="" style="whiteSpace=wrap;html=1;aspect=fixed;fillColor=#FFFFFF;" vertex="1" parent="1">
          <mxGeometry x="530" y="680" width="40" height="40" as="geometry" />
        </mxCell>
        <mxCell id="cV7xCcReivzUAdjwhD2p-107" value="" style="whiteSpace=wrap;html=1;aspect=fixed;fillColor=#FFFFFF;" vertex="1" parent="1">
          <mxGeometry x="570" y="680" width="40" height="40" as="geometry" />
        </mxCell>
        <mxCell id="cV7xCcReivzUAdjwhD2p-108" value="" style="whiteSpace=wrap;html=1;aspect=fixed;fillColor=#FFFFFF;" vertex="1" parent="1">
          <mxGeometry x="210" y="720" width="40" height="40" as="geometry" />
        </mxCell>
        <mxCell id="cV7xCcReivzUAdjwhD2p-109" value="" style="whiteSpace=wrap;html=1;aspect=fixed;fillColor=#FFFFFF;" vertex="1" parent="1">
          <mxGeometry x="250" y="720" width="40" height="40" as="geometry" />
        </mxCell>
        <mxCell id="cV7xCcReivzUAdjwhD2p-110" value="" style="whiteSpace=wrap;html=1;aspect=fixed;fillColor=#FFFFFF;" vertex="1" parent="1">
          <mxGeometry x="210" y="760" width="40" height="40" as="geometry" />
        </mxCell>
        <mxCell id="cV7xCcReivzUAdjwhD2p-111" value="" style="whiteSpace=wrap;html=1;aspect=fixed;fillColor=#FFFFFF;" vertex="1" parent="1">
          <mxGeometry x="250" y="760" width="40" height="40" as="geometry" />
        </mxCell>
        <mxCell id="cV7xCcReivzUAdjwhD2p-112" value="" style="whiteSpace=wrap;html=1;aspect=fixed;fillColor=#FFFFFF;" vertex="1" parent="1">
          <mxGeometry x="290" y="720" width="40" height="40" as="geometry" />
        </mxCell>
        <mxCell id="cV7xCcReivzUAdjwhD2p-113" value="" style="whiteSpace=wrap;html=1;aspect=fixed;fillColor=#FFFFFF;" vertex="1" parent="1">
          <mxGeometry x="330" y="720" width="40" height="40" as="geometry" />
        </mxCell>
        <mxCell id="cV7xCcReivzUAdjwhD2p-114" value="" style="whiteSpace=wrap;html=1;aspect=fixed;fillColor=#FFFFFF;" vertex="1" parent="1">
          <mxGeometry x="290" y="760" width="40" height="40" as="geometry" />
        </mxCell>
        <mxCell id="cV7xCcReivzUAdjwhD2p-115" value="" style="whiteSpace=wrap;html=1;aspect=fixed;fillColor=#FFFFFF;" vertex="1" parent="1">
          <mxGeometry x="330" y="760" width="40" height="40" as="geometry" />
        </mxCell>
        <mxCell id="cV7xCcReivzUAdjwhD2p-116" value="" style="whiteSpace=wrap;html=1;aspect=fixed;fillColor=#FFFFFF;" vertex="1" parent="1">
          <mxGeometry x="370" y="720" width="40" height="40" as="geometry" />
        </mxCell>
        <mxCell id="cV7xCcReivzUAdjwhD2p-117" value="" style="whiteSpace=wrap;html=1;aspect=fixed;fillColor=#FFFFFF;" vertex="1" parent="1">
          <mxGeometry x="410" y="720" width="40" height="40" as="geometry" />
        </mxCell>
        <mxCell id="cV7xCcReivzUAdjwhD2p-118" value="" style="whiteSpace=wrap;html=1;aspect=fixed;fillColor=#FFFFFF;" vertex="1" parent="1">
          <mxGeometry x="370" y="760" width="40" height="40" as="geometry" />
        </mxCell>
        <mxCell id="cV7xCcReivzUAdjwhD2p-119" value="" style="whiteSpace=wrap;html=1;aspect=fixed;fillColor=#FFFFFF;" vertex="1" parent="1">
          <mxGeometry x="410" y="760" width="40" height="40" as="geometry" />
        </mxCell>
        <mxCell id="cV7xCcReivzUAdjwhD2p-120" value="" style="whiteSpace=wrap;html=1;aspect=fixed;fillColor=#FFFFFF;" vertex="1" parent="1">
          <mxGeometry x="450" y="720" width="40" height="40" as="geometry" />
        </mxCell>
        <mxCell id="cV7xCcReivzUAdjwhD2p-121" value="" style="whiteSpace=wrap;html=1;aspect=fixed;fillColor=#FFFFFF;" vertex="1" parent="1">
          <mxGeometry x="490" y="720" width="40" height="40" as="geometry" />
        </mxCell>
        <mxCell id="cV7xCcReivzUAdjwhD2p-122" value="" style="whiteSpace=wrap;html=1;aspect=fixed;fillColor=#FFFFFF;" vertex="1" parent="1">
          <mxGeometry x="450" y="760" width="40" height="40" as="geometry" />
        </mxCell>
        <mxCell id="cV7xCcReivzUAdjwhD2p-123" value="" style="whiteSpace=wrap;html=1;aspect=fixed;fillColor=#FFFFFF;" vertex="1" parent="1">
          <mxGeometry x="490" y="760" width="40" height="40" as="geometry" />
        </mxCell>
        <mxCell id="cV7xCcReivzUAdjwhD2p-124" value="" style="whiteSpace=wrap;html=1;aspect=fixed;fillColor=#FFFFFF;" vertex="1" parent="1">
          <mxGeometry x="530" y="720" width="40" height="40" as="geometry" />
        </mxCell>
        <mxCell id="cV7xCcReivzUAdjwhD2p-125" value="" style="whiteSpace=wrap;html=1;aspect=fixed;fillColor=#FFFFFF;" vertex="1" parent="1">
          <mxGeometry x="570" y="720" width="40" height="40" as="geometry" />
        </mxCell>
        <mxCell id="cV7xCcReivzUAdjwhD2p-126" value="" style="whiteSpace=wrap;html=1;aspect=fixed;fillColor=#FFFFFF;" vertex="1" parent="1">
          <mxGeometry x="530" y="760" width="40" height="40" as="geometry" />
        </mxCell>
        <mxCell id="cV7xCcReivzUAdjwhD2p-127" value="" style="whiteSpace=wrap;html=1;aspect=fixed;fillColor=#FFFFFF;" vertex="1" parent="1">
          <mxGeometry x="570" y="760" width="40" height="40" as="geometry" />
        </mxCell>
        <mxCell id="cV7xCcReivzUAdjwhD2p-128" value="" style="whiteSpace=wrap;html=1;aspect=fixed;fillColor=#FFFFFF;" vertex="1" parent="1">
          <mxGeometry x="210" y="800" width="40" height="40" as="geometry" />
        </mxCell>
        <mxCell id="cV7xCcReivzUAdjwhD2p-129" value="" style="whiteSpace=wrap;html=1;aspect=fixed;fillColor=#FFFFFF;" vertex="1" parent="1">
          <mxGeometry x="250" y="800" width="40" height="40" as="geometry" />
        </mxCell>
        <mxCell id="cV7xCcReivzUAdjwhD2p-130" value="" style="whiteSpace=wrap;html=1;aspect=fixed;fillColor=#FFFFFF;" vertex="1" parent="1">
          <mxGeometry x="210" y="840" width="40" height="40" as="geometry" />
        </mxCell>
        <mxCell id="cV7xCcReivzUAdjwhD2p-131" value="" style="whiteSpace=wrap;html=1;aspect=fixed;fillColor=#FFFFFF;" vertex="1" parent="1">
          <mxGeometry x="250" y="840" width="40" height="40" as="geometry" />
        </mxCell>
        <mxCell id="cV7xCcReivzUAdjwhD2p-132" value="" style="whiteSpace=wrap;html=1;aspect=fixed;fillColor=#FFFFFF;" vertex="1" parent="1">
          <mxGeometry x="290" y="800" width="40" height="40" as="geometry" />
        </mxCell>
        <mxCell id="cV7xCcReivzUAdjwhD2p-133" value="" style="whiteSpace=wrap;html=1;aspect=fixed;fillColor=#FFFFFF;" vertex="1" parent="1">
          <mxGeometry x="330" y="800" width="40" height="40" as="geometry" />
        </mxCell>
        <mxCell id="cV7xCcReivzUAdjwhD2p-134" value="" style="whiteSpace=wrap;html=1;aspect=fixed;fillColor=#FFFFFF;" vertex="1" parent="1">
          <mxGeometry x="290" y="840" width="40" height="40" as="geometry" />
        </mxCell>
        <mxCell id="cV7xCcReivzUAdjwhD2p-135" value="" style="whiteSpace=wrap;html=1;aspect=fixed;fillColor=#FFFFFF;" vertex="1" parent="1">
          <mxGeometry x="330" y="840" width="40" height="40" as="geometry" />
        </mxCell>
        <mxCell id="cV7xCcReivzUAdjwhD2p-136" value="" style="whiteSpace=wrap;html=1;aspect=fixed;fillColor=#FFFFFF;" vertex="1" parent="1">
          <mxGeometry x="370" y="800" width="40" height="40" as="geometry" />
        </mxCell>
        <mxCell id="cV7xCcReivzUAdjwhD2p-137" value="" style="whiteSpace=wrap;html=1;aspect=fixed;fillColor=#FFFFFF;" vertex="1" parent="1">
          <mxGeometry x="410" y="800" width="40" height="40" as="geometry" />
        </mxCell>
        <mxCell id="cV7xCcReivzUAdjwhD2p-138" value="" style="whiteSpace=wrap;html=1;aspect=fixed;fillColor=#FFFFFF;" vertex="1" parent="1">
          <mxGeometry x="370" y="840" width="40" height="40" as="geometry" />
        </mxCell>
        <mxCell id="cV7xCcReivzUAdjwhD2p-139" value="" style="whiteSpace=wrap;html=1;aspect=fixed;fillColor=#FFFFFF;" vertex="1" parent="1">
          <mxGeometry x="410" y="840" width="40" height="40" as="geometry" />
        </mxCell>
        <mxCell id="cV7xCcReivzUAdjwhD2p-140" value="" style="whiteSpace=wrap;html=1;aspect=fixed;fillColor=#FFFFFF;" vertex="1" parent="1">
          <mxGeometry x="450" y="800" width="40" height="40" as="geometry" />
        </mxCell>
        <mxCell id="cV7xCcReivzUAdjwhD2p-141" value="" style="whiteSpace=wrap;html=1;aspect=fixed;fillColor=#FFFFFF;" vertex="1" parent="1">
          <mxGeometry x="490" y="800" width="40" height="40" as="geometry" />
        </mxCell>
        <mxCell id="cV7xCcReivzUAdjwhD2p-142" value="" style="whiteSpace=wrap;html=1;aspect=fixed;fillColor=#FFFFFF;" vertex="1" parent="1">
          <mxGeometry x="450" y="840" width="40" height="40" as="geometry" />
        </mxCell>
        <mxCell id="cV7xCcReivzUAdjwhD2p-143" value="" style="whiteSpace=wrap;html=1;aspect=fixed;fillColor=#FFFFFF;" vertex="1" parent="1">
          <mxGeometry x="490" y="840" width="40" height="40" as="geometry" />
        </mxCell>
        <mxCell id="cV7xCcReivzUAdjwhD2p-144" value="" style="whiteSpace=wrap;html=1;aspect=fixed;fillColor=#FFFFFF;" vertex="1" parent="1">
          <mxGeometry x="530" y="800" width="40" height="40" as="geometry" />
        </mxCell>
        <mxCell id="cV7xCcReivzUAdjwhD2p-145" value="" style="whiteSpace=wrap;html=1;aspect=fixed;fillColor=#FFFFFF;" vertex="1" parent="1">
          <mxGeometry x="570" y="800" width="40" height="40" as="geometry" />
        </mxCell>
        <mxCell id="cV7xCcReivzUAdjwhD2p-146" value="" style="whiteSpace=wrap;html=1;aspect=fixed;fillColor=#FFFFFF;" vertex="1" parent="1">
          <mxGeometry x="530" y="840" width="40" height="40" as="geometry" />
        </mxCell>
        <mxCell id="cV7xCcReivzUAdjwhD2p-147" value="" style="whiteSpace=wrap;html=1;aspect=fixed;fillColor=#FFFFFF;" vertex="1" parent="1">
          <mxGeometry x="570" y="840" width="40" height="40" as="geometry" />
        </mxCell>
        <mxCell id="cV7xCcReivzUAdjwhD2p-148" value="" style="whiteSpace=wrap;html=1;aspect=fixed;fillColor=#FFFFFF;" vertex="1" parent="1">
          <mxGeometry x="210" y="880" width="40" height="40" as="geometry" />
        </mxCell>
        <mxCell id="cV7xCcReivzUAdjwhD2p-149" value="" style="whiteSpace=wrap;html=1;aspect=fixed;fillColor=#FFFFFF;" vertex="1" parent="1">
          <mxGeometry x="250" y="880" width="40" height="40" as="geometry" />
        </mxCell>
        <mxCell id="cV7xCcReivzUAdjwhD2p-150" value="" style="whiteSpace=wrap;html=1;aspect=fixed;fillColor=#FFFFFF;" vertex="1" parent="1">
          <mxGeometry x="210" y="920" width="40" height="40" as="geometry" />
        </mxCell>
        <mxCell id="cV7xCcReivzUAdjwhD2p-151" value="" style="whiteSpace=wrap;html=1;aspect=fixed;fillColor=#FFFFFF;" vertex="1" parent="1">
          <mxGeometry x="250" y="920" width="40" height="40" as="geometry" />
        </mxCell>
        <mxCell id="cV7xCcReivzUAdjwhD2p-152" value="" style="whiteSpace=wrap;html=1;aspect=fixed;fillColor=#FFFFFF;" vertex="1" parent="1">
          <mxGeometry x="290" y="880" width="40" height="40" as="geometry" />
        </mxCell>
        <mxCell id="cV7xCcReivzUAdjwhD2p-153" value="" style="whiteSpace=wrap;html=1;aspect=fixed;fillColor=#FFFFFF;" vertex="1" parent="1">
          <mxGeometry x="330" y="880" width="40" height="40" as="geometry" />
        </mxCell>
        <mxCell id="cV7xCcReivzUAdjwhD2p-154" value="" style="whiteSpace=wrap;html=1;aspect=fixed;fillColor=#FFFFFF;" vertex="1" parent="1">
          <mxGeometry x="290" y="920" width="40" height="40" as="geometry" />
        </mxCell>
        <mxCell id="cV7xCcReivzUAdjwhD2p-155" value="" style="whiteSpace=wrap;html=1;aspect=fixed;fillColor=#FFFFFF;" vertex="1" parent="1">
          <mxGeometry x="330" y="920" width="40" height="40" as="geometry" />
        </mxCell>
        <mxCell id="cV7xCcReivzUAdjwhD2p-156" value="" style="whiteSpace=wrap;html=1;aspect=fixed;fillColor=#FFFFFF;" vertex="1" parent="1">
          <mxGeometry x="370" y="880" width="40" height="40" as="geometry" />
        </mxCell>
        <mxCell id="cV7xCcReivzUAdjwhD2p-157" value="" style="whiteSpace=wrap;html=1;aspect=fixed;fillColor=#FFFFFF;" vertex="1" parent="1">
          <mxGeometry x="410" y="880" width="40" height="40" as="geometry" />
        </mxCell>
        <mxCell id="cV7xCcReivzUAdjwhD2p-158" value="" style="whiteSpace=wrap;html=1;aspect=fixed;fillColor=#FFFFFF;" vertex="1" parent="1">
          <mxGeometry x="370" y="920" width="40" height="40" as="geometry" />
        </mxCell>
        <mxCell id="cV7xCcReivzUAdjwhD2p-159" value="" style="whiteSpace=wrap;html=1;aspect=fixed;fillColor=#FFFFFF;" vertex="1" parent="1">
          <mxGeometry x="410" y="920" width="40" height="40" as="geometry" />
        </mxCell>
        <mxCell id="cV7xCcReivzUAdjwhD2p-160" value="" style="whiteSpace=wrap;html=1;aspect=fixed;fillColor=#FFFFFF;" vertex="1" parent="1">
          <mxGeometry x="450" y="880" width="40" height="40" as="geometry" />
        </mxCell>
        <mxCell id="cV7xCcReivzUAdjwhD2p-161" value="" style="whiteSpace=wrap;html=1;aspect=fixed;fillColor=#FFFFFF;" vertex="1" parent="1">
          <mxGeometry x="490" y="880" width="40" height="40" as="geometry" />
        </mxCell>
        <mxCell id="cV7xCcReivzUAdjwhD2p-162" value="" style="whiteSpace=wrap;html=1;aspect=fixed;fillColor=#FFFFFF;" vertex="1" parent="1">
          <mxGeometry x="450" y="920" width="40" height="40" as="geometry" />
        </mxCell>
        <mxCell id="cV7xCcReivzUAdjwhD2p-163" value="" style="whiteSpace=wrap;html=1;aspect=fixed;fillColor=#FFFFFF;" vertex="1" parent="1">
          <mxGeometry x="490" y="920" width="40" height="40" as="geometry" />
        </mxCell>
        <mxCell id="cV7xCcReivzUAdjwhD2p-164" value="" style="whiteSpace=wrap;html=1;aspect=fixed;fillColor=#FFFFFF;" vertex="1" parent="1">
          <mxGeometry x="530" y="880" width="40" height="40" as="geometry" />
        </mxCell>
        <mxCell id="cV7xCcReivzUAdjwhD2p-165" value="" style="whiteSpace=wrap;html=1;aspect=fixed;fillColor=#FFFFFF;" vertex="1" parent="1">
          <mxGeometry x="570" y="880" width="40" height="40" as="geometry" />
        </mxCell>
        <mxCell id="cV7xCcReivzUAdjwhD2p-166" value="" style="whiteSpace=wrap;html=1;aspect=fixed;fillColor=#FFFFFF;" vertex="1" parent="1">
          <mxGeometry x="530" y="920" width="40" height="40" as="geometry" />
        </mxCell>
        <mxCell id="cV7xCcReivzUAdjwhD2p-167" value="" style="whiteSpace=wrap;html=1;aspect=fixed;fillColor=#FFFFFF;" vertex="1" parent="1">
          <mxGeometry x="570" y="920" width="40" height="40" as="geometry" />
        </mxCell>
        <mxCell id="cV7xCcReivzUAdjwhD2p-171" value="OPA" style="rounded=0;whiteSpace=wrap;html=1;connectable=0;fillColor=#FF6666;" vertex="1" parent="1">
          <mxGeometry x="375" y="845" width="70" height="70" as="geometry" />
        </mxCell>
        <mxCell id="cV7xCcReivzUAdjwhD2p-172" value="F&lt;br&gt;L&lt;br&gt;A&lt;br&gt;C&lt;br&gt;O" style="rounded=0;whiteSpace=wrap;html=1;connectable=0;fillColor=#FF6666;" vertex="1" parent="1">
          <mxGeometry x="335" y="885" width="30" height="70" as="geometry" />
        </mxCell>
        <mxCell id="cV7xCcReivzUAdjwhD2p-173" value="C&lt;br&gt;H&lt;br&gt;A&lt;br&gt;T&lt;br&gt;O" style="rounded=0;whiteSpace=wrap;html=1;connectable=0;fillColor=#FF6666;" vertex="1" parent="1">
          <mxGeometry x="455" y="885" width="30" height="70" as="geometry" />
        </mxCell>
        <mxCell id="cV7xCcReivzUAdjwhD2p-176" value="MINI" style="rounded=0;whiteSpace=wrap;html=1;connectable=0;fillColor=#FF6666;" vertex="1" parent="1">
          <mxGeometry x="375" y="925" width="30" height="30" as="geometry" />
        </mxCell>
        <mxCell id="cV7xCcReivzUAdjwhD2p-177" value="OPA" style="rounded=0;whiteSpace=wrap;html=1;connectable=0;fillColor=#6666FF;" vertex="1" parent="1">
          <mxGeometry x="375" y="605" width="70" height="70" as="geometry" />
        </mxCell>
        <mxCell id="cV7xCcReivzUAdjwhD2p-178" value="F&lt;br&gt;L&lt;br&gt;A&lt;br&gt;C&lt;br&gt;O" style="rounded=0;whiteSpace=wrap;html=1;connectable=0;fillColor=#6666FF;" vertex="1" parent="1">
          <mxGeometry x="455" y="565" width="30" height="70" as="geometry" />
        </mxCell>
        <mxCell id="cV7xCcReivzUAdjwhD2p-179" value="C&lt;br&gt;H&lt;br&gt;A&lt;br&gt;T&lt;br&gt;O" style="rounded=0;html=1;connectable=0;fillColor=#6666FF;gradientColor=none;direction=west;whiteSpace=wrap;" vertex="1" parent="1">
          <mxGeometry x="335" y="565" width="30" height="70" as="geometry" />
        </mxCell>
        <mxCell id="cV7xCcReivzUAdjwhD2p-180" value="Mini" style="rounded=0;whiteSpace=wrap;html=1;connectable=0;fillColor=#6666FF;" vertex="1" parent="1">
          <mxGeometry x="415" y="565" width="30" height="30" as="geometry" />
        </mxCell>
        <mxCell id="cV7xCcReivzUAdjwhD2p-181" value="CAB" style="ellipse;whiteSpace=wrap;html=1;fillColor=#6666FF;" vertex="1" parent="1">
          <mxGeometry x="375" y="565" width="30" height="30" as="geometry" />
        </mxCell>
        <mxCell id="cV7xCcReivzUAdjwhD2p-182" value="CAB" style="ellipse;whiteSpace=wrap;html=1;fillColor=#FF6666;" vertex="1" parent="1">
          <mxGeometry x="415" y="925" width="30" height="30" as="geometry" />
        </mxCell>
      </root>
    </mxGraphModel>
  </diagram>
</mxfile>
